# xmcd
#
# Track frame offsets: 
#        150
#        14015
#        29479
#        46603
#        60259
#        72692
#        90004
#        106512
#        125118
#        140454
#        156088
#        176974
#        190985
#        203780
#        218782
#        236464
#        253457
#        266988
#        282667
#
# Disc length: 3930 seconds
#
# Revision: 0
# Processed by: cddbd v1.5.2PL0 Copyright (c) Steve Scherf et al.
# Submitted via: ExactAudioCopy v0.95a3
#
DISCID=200f5813
DTITLE=Various Artist - Sunshine HitMix Vol.2
DYEAR=2007
DGENRE=Schlager
TTITLE0=Viola - und wenn es Sünde ist 2007
TTITLE1=Duo Mosaique - Du bist der pure Wahnsinn
TTITLE2=Marc Philip - Adieu Cherie goodbye
TTITLE3=Elisabeth - Mein Herz fährt Achterbahn
TTITLE4=Jessica-Sarah - Opilein (Country Version)
TTITLE5=Vincent - Auf einmal war es Liebe
TTITLE6=Roman Wagner - Wiedermal nur rumgezofft
TTITLE7=Tina Paus - Liebe ist
TTITLE8=Vincent - Ein Lied für dich
TTITLE9=Daniela Rohde - Ich bin wieder stark genug
TTITLE10=Duo Mosaique - Ich sehne mich nach dir
TTITLE11=Jil - Dein Lachen verzaubert
TTITLE12=Frank Gerlach - So eine Frau
TTITLE13=J. and C. Projekt - Ich schwebe
TTITLE14=Gabi Küppers - Sommerflieger
TTITLE15=K.H. Strangemann - Noch ein Glas Bier
TTITLE16=Gabi Küppers - Leben mit dir
TTITLE17=Frank Gerlach - Lieber Gott
TTITLE18=Jessica Sarah and Elisabeth - Schutzengel schlafen nie
EXTD=
EXTT0=
EXTT1=
EXTT2=
EXTT3=
EXTT4=
EXTT5=
EXTT6=
EXTT7=
EXTT8=
EXTT9=
EXTT10=
EXTT11=
EXTT12=
EXTT13=
EXTT14=
EXTT15=
EXTT16=
EXTT17=
EXTT18=
PLAYORDER=
